<svg xmlns="http://www.w3.org/2000/svg" width="80" height="41" viewBox="47 0 80 41" fill="none">
  <path d="M123.38 39.8155C121.731 37.5331 119.639 35.3141 117.293 33.4121C118.688 30.8127 119.893 28.023 120.59 25.1066C120.653 24.853 120.527 24.536 120.336 24.4092C117.927 23.0144 115.328 21.9366 112.665 21.1758C112.855 19.5908 112.919 18.0692 112.982 16.5475C112.982 15.2161 112.982 13.8847 112.855 12.5533C112.855 12.2997 112.665 11.9827 112.411 11.9193C109.558 11.5389 106.515 11.4755 103.472 11.9193C102.711 9.00287 101.697 6.02305 100.239 3.36023C100.112 3.10663 99.7947 2.97982 99.5411 3.04323C96.8783 3.80403 94.2789 5.13544 91.8696 6.53025C90.1578 4.12103 88.129 1.96542 85.9734 0.190202C85.7198 -0.0634005 85.4028 -0.0634005 85.1492 0.190202C82.9302 2.02882 80.9014 4.24783 79.1895 6.65705C76.7169 5.19884 74.0541 3.93083 71.3279 3.10662C71.0743 3.04322 70.7573 3.17002 70.6305 3.42362C69.2991 5.95964 68.2847 8.74927 67.5872 11.5389C66.129 11.3487 64.6708 11.2219 63.2126 11.2219C61.9446 11.2219 60.6766 11.2219 59.4086 11.4121C59.155 11.4121 58.838 11.6023 58.838 11.8559C58.4576 14.8357 58.3942 18.0692 58.838 21.3026C56.0484 22.1268 53.2587 23.2046 50.7227 24.7262C50.4691 24.853 50.3423 25.17 50.4691 25.4236C51.2299 28.2766 52.4345 31.0029 53.8293 33.6023C52.3711 34.8069 51.0397 36.0749 49.8351 37.4697C49.2645 38.1037 48.1233 39.0547 47.8697 39.8789C47.7429 40.1959 47.8063 40.4495 47.9965 40.7665H48.3135H49.5815H60.423H62.8322C65.9388 40.7665 69.1089 40.7665 72.2155 40.7665H78.3653C79.8236 40.7665 81.3452 40.7665 82.8034 40.7665C82.9936 40.7665 83.1838 40.7665 83.374 40.7665H88.0022C89.4604 40.7665 90.982 40.7665 92.4402 40.7665H98.4633C101.253 40.7665 104.043 40.7665 106.832 40.7665C107.466 40.7665 108.164 40.7665 108.798 40.7665H110.953H121.731H122.619H123.253C123.253 40.7031 123.316 40.7031 123.316 40.6397C123.633 40.3861 123.633 40.1325 123.38 39.8155ZM121.668 39.5619H110.953C110.89 39.4985 110.89 39.4351 110.826 39.3717C112.221 37.2161 114.06 35.5043 116.279 34.2997C116.342 34.2997 116.406 34.3631 116.406 34.3631C118.371 35.8847 120.146 37.6599 121.668 39.5619ZM112.538 22.4438C114.884 23.1412 117.23 24.0288 119.322 25.2968C118.625 27.8962 117.547 30.3688 116.342 32.6513C114.567 31.3199 112.602 30.1786 110.636 29.4178C111.587 27.2622 112.158 24.853 112.538 22.4438ZM108.037 12.9337C109.051 12.9337 110.002 12.9337 111.017 13.0605C111.27 13.0605 111.524 13.1239 111.777 13.1239C112.031 15.8501 111.968 18.7031 111.587 21.4928C111.587 21.5562 111.524 21.6196 111.524 21.7464C111.27 23.268 110.953 24.7896 110.573 26.1844C110.256 27.1988 109.939 28.1498 109.558 29.0374C107.91 28.4668 106.198 28.1498 104.423 28.1498C101.316 28.2132 98.3999 29.1642 95.6737 30.6858C97.4489 28.7838 99.2875 26.9452 101.063 25.0432C101.507 24.536 102.014 24.0922 102.458 23.585C102.901 23.7118 103.345 23.6484 103.662 23.268C104.169 22.7608 104.169 21.8732 103.662 21.366C103.155 20.8588 102.394 20.8588 101.887 21.366C101.57 21.7464 101.443 22.1902 101.57 22.634C99.2875 25.0432 97.0051 27.389 94.7227 29.7982C95.7371 27.8328 96.4345 25.7406 96.8149 23.5216C97.2587 20.7954 97.0685 18.0057 96.3077 15.4063C97.1953 14.9625 98.2097 14.5821 99.1607 14.2651C102.014 13.3141 105.057 12.9337 108.037 12.9337ZM84.4518 38.1037C83.1838 36.7089 81.8524 35.3775 80.5844 33.9827C80.5844 33.9827 80.5844 33.9193 80.521 33.9193C77.8581 30.3688 75.6391 26.121 75.3855 21.4928C75.2587 19.5274 75.5123 17.5619 76.0829 15.7233C78.0483 16.8645 79.7601 18.3227 81.155 20.2248C83.5642 23.6484 84.642 27.8328 85.0858 32.0173C85.0858 33.6657 85.0858 35.3141 85.0224 37.0259C85.0224 37.3429 85.0224 37.5965 85.0224 37.9135C84.8322 37.9135 84.642 37.9769 84.4518 38.1037ZM86.7976 38.0403C86.6074 37.9135 86.4172 37.8501 86.227 37.7867C86.227 36.1383 86.227 34.4899 86.2904 32.8415C86.3538 32.7781 86.3538 32.7147 86.3538 32.5879C86.7976 28.4668 87.812 24.2824 90.031 20.8588C91.4258 18.7665 93.2011 17.1815 95.2299 15.9769C95.8005 18.0057 95.9907 20.1614 95.7371 22.317C95.2299 26.755 93.0743 30.8127 90.4114 34.2363C89.397 35.3141 88.3192 36.3919 87.3048 37.4697C87.178 37.6599 86.9878 37.8501 86.7976 38.0403ZM99.4777 4.43804C100.746 6.84725 101.633 9.44668 102.331 12.1095C100.112 12.5533 97.9561 13.1873 95.9907 14.2017C95.7371 13.4409 95.4201 12.6801 95.1031 11.9827C94.4057 10.5245 93.5815 9.06628 92.6939 7.67147C94.7861 6.34005 97.0685 5.19884 99.4777 4.43804ZM93.3912 11.2853C93.9619 12.4265 94.4691 13.5677 94.8495 14.7723C92.0598 16.3573 89.714 18.6398 88.0656 21.683C87.3048 23.1412 86.7342 24.6628 86.227 26.1844C86.227 23.3948 86.2904 20.6052 86.2904 17.8155C86.2904 17.1181 86.2904 16.4207 86.2904 15.7233C86.6708 15.4697 86.9244 15.0893 86.9244 14.5821C86.9244 14.5187 86.9244 14.4553 86.9244 14.3919C88.9532 12.8703 90.6016 10.9049 91.7429 8.55907C92.3769 9.51008 92.884 10.3977 93.3912 11.2853ZM85.593 1.52161C87.6218 3.23342 89.4604 5.26224 90.982 7.48126C89.9042 9.89048 88.2558 11.9193 86.227 13.4409C86.1002 13.3775 85.91 13.3141 85.7198 13.3141C85.4028 13.3141 85.1492 13.4409 84.8956 13.6311C82.8034 12.1095 81.0916 10.0807 79.9504 7.67147C81.6622 5.38905 83.5642 3.29682 85.593 1.52161ZM79.2529 8.87607C80.521 11.3487 82.2962 13.3775 84.5152 14.8991C84.5786 15.2795 84.8322 15.5965 85.1492 15.7867C85.1492 19.147 85.0858 22.5072 85.0858 25.9308C83.8178 21.7464 81.6622 17.9423 77.9849 15.4063C77.4777 15.0893 76.9705 14.7723 76.4633 14.4553C76.9071 13.2507 77.4143 12.1095 77.9849 11.0317C78.4287 10.2709 78.8091 9.57348 79.2529 8.87607ZM71.5181 4.56483C73.9273 5.32564 76.2731 6.46685 78.4921 7.79826C77.6679 9.06628 76.9705 10.3343 76.3365 11.6657C76.0195 12.3631 75.7025 13.1239 75.3855 13.8847C73.2933 12.8703 71.0743 12.2363 68.7919 11.8559C69.4893 9.31987 70.3769 6.84725 71.5181 4.56483ZM59.9792 13.4409C59.9792 13.1873 60.0426 12.9337 60.0426 12.6801C64.0368 12.2363 68.348 12.6801 72.1521 13.9481C73.1031 14.2651 74.0541 14.6455 75.0051 15.0893C74.3077 17.4985 73.9907 20.0346 74.3077 22.634C74.6247 25.1066 75.3855 27.4524 76.4633 29.6081C74.6881 27.706 72.9129 25.8674 71.2011 23.9654C70.7573 23.4582 70.2501 23.0144 69.8063 22.5072C69.9331 22.0634 69.8063 21.5562 69.4893 21.2392C68.9821 20.732 68.2212 20.732 67.714 21.2392C67.2068 21.7464 67.2068 22.634 67.714 23.1412C68.031 23.5216 68.5383 23.585 68.9187 23.4582C71.2011 25.8674 73.4835 28.34 75.7659 30.7493C71.5815 28.4668 66.9532 27.5158 62.2616 28.974H62.1982C61.7544 27.9596 61.374 26.9452 61.1204 25.8674C60.2962 22.8242 59.9158 19.6542 59.9158 16.5475C59.8524 15.4697 59.9158 14.4553 59.9792 13.4409ZM51.8005 25.6772C54.0829 24.3458 56.5556 23.3948 59.0916 22.634C59.472 24.9798 60.106 27.2622 61.057 29.3544C58.838 30.242 56.7458 31.4467 54.8437 32.9049C53.5757 30.6224 52.4979 28.1498 51.8005 25.6772ZM49.7083 39.5619C51.1665 37.7867 52.8149 36.0749 54.6535 34.6167C56.9994 35.6945 58.9648 37.4063 60.4864 39.5619H49.7083ZM64.7342 39.5619C64.1002 39.5619 63.4028 39.5619 62.7688 39.5619C62.5786 39.1815 62.1982 38.8645 61.691 38.8645C61.6276 38.8645 61.5642 38.8645 61.4374 38.8645C59.9158 36.6455 57.9504 34.9337 55.6679 33.7291C56.3654 33.2219 57.1262 32.7147 57.8236 32.2709C58.9648 31.5735 60.2328 30.9395 61.5008 30.4322C62.959 33.2853 64.9878 35.7579 67.7774 37.4697C69.1723 38.3573 70.6305 38.9913 72.1521 39.4985C69.6795 39.5619 67.2068 39.5619 64.7342 39.5619ZM77.9215 39.5619C74.1175 39.0547 70.1867 37.9135 67.08 35.4409C65.2414 33.9827 63.8466 32.1441 62.7688 30.0518C64.2904 29.608 65.9388 29.3544 67.5238 29.3544C72.0253 29.4812 76.1463 31.8271 79.6333 34.6801C80.7746 35.8847 81.9158 37.0893 83.057 38.2939C83.2472 38.4841 83.4374 38.7377 83.6276 38.9279C83.5008 39.1181 83.4374 39.3083 83.374 39.4985C81.5354 39.5619 79.6967 39.5619 77.9215 39.5619ZM88.8264 39.5619C88.5094 39.5619 88.2558 39.5619 87.9388 39.5619C87.8754 39.3083 87.812 39.1181 87.6852 38.9279C88.8264 37.7867 89.9042 36.5821 91.0454 35.4409C91.1088 35.4409 91.1088 35.3775 91.1722 35.3775C94.9129 32.1441 99.3509 29.5446 104.36 29.4812C105.881 29.4812 107.466 29.7983 108.924 30.2421C107.783 32.3977 106.325 34.3631 104.36 35.8213C101.38 38.0403 97.8293 39.1815 94.2155 39.6253C92.3769 39.5619 90.6016 39.5619 88.8264 39.5619ZM99.6679 39.5619C103.409 38.2305 106.832 36.0115 109.115 32.3343C109.495 31.7637 109.812 31.1931 110.129 30.5591C111.904 31.2565 113.679 32.2075 115.264 33.3487C112.982 34.6801 111.08 36.5187 109.685 38.8645C109.305 38.9279 109.051 39.1815 108.861 39.4985C105.754 39.5619 102.711 39.5619 99.6679 39.5619Z" fill="#BC8C4C"/>
</svg>
